<svg xmlns="http://www.w3.org/2000/svg" width="2175.721" height="256.959" viewBox="-116.064 8018 2175.721 256.959">
<g data-name="footer_white">
<path d="M17.017 77.537c87.11-6.843 232.645-98.555 398.245-73.078C545.328 21.22 809.08 161.6 1124.593 161.343c315.513-.258 734.81-281.587 964.101-71.067-10.497 17.739-755.32 118.02-755.32 118.02l-998.484-71.47h-68.386S-70.094 84.381 17.017 77.537Z" fill-rule="evenodd" fill="url(&quot;#a&quot;)" transform="translate(-79.281 8018)" data-name="Path 9"/>
<path d="M24.199 61.022c87.11-6.844 232.645-71.068 388.859-59.67 162.918 16.761 436.057 135.688 751.57 135.43 315.512-.258 657.936-247.758 907.112-50.284-10.497 17.74-14.75 69.727-14.75 69.727l-840.297 57.35-998.484-71.47h-68.385S-62.912 67.866 24.199 61.023Z" fill-rule="evenodd" fill="url(&quot;#b&quot;)" transform="translate(-119.315 8042.561)" data-name="Path 9"/>
<path d="M-86.4 8123.026c87.11-6.844 185.043-63.693 359.358-51.625 248.065 19.443 425.063 113.306 758.945 113.306 322.485 5.363 666.423-192.418 919.852-24.136 253.429 168.282-19.04 57.4-19.04 57.4l-864.876 56.988-998.483-71.47H.971s-174.482-73.62-87.372-80.463Z" fill="#fff" fill-rule="evenodd" data-name="Path 9"/>
</g>
<defs>
<linearGradient x1="-.212" y1="-.873" x2="1.092" y2="1.056" id="a">
<stop stop-color="#c262d7" offset="0"/>
<stop stop-color="#67008f" offset="1"/>
</linearGradient>
<linearGradient x1="1.261" y1="-.195" x2="0" y2=".903" id="b">
<stop stop-color="#f093fb" offset="0"/>
<stop stop-color="#67008f" offset="1"/>
</linearGradient>
</defs>
</svg>
